<?xml version="1.0" encoding="UTF-8"?>
<svg width="144px" height="144px" viewBox="0 0 144 144" version="1.1" xmlns="http://www.w3.org/2000/svg" xmlns:xlink="http://www.w3.org/1999/xlink">
    <!-- Generator: sketchtool 54.1 (76490) - https://sketchapp.com -->
    <title>A0A306DB-34FF-44AF-85C6-6CCEDFB07C89</title>
    <desc>Created with sketchtool.</desc>
    <defs>
        <circle id="path-1" cx="72" cy="72" r="72"></circle>
    </defs>
    <g id="Page-1" stroke="none" stroke-width="1" fill="none" fill-rule="evenodd">
        <g id="NF:" transform="translate(-679.000000, -149.000000)">
            <g id="Group-5" transform="translate(582.000000, 149.000000)">
                <g id="Group-4">
                    <g id="send_-copy" transform="translate(97.000000, 0.000000)">
                        <g id="Group">
                            <g id="Oval-2">
                                <mask id="mask-2" fill="white">
                                    <use xlink:href="#path-1"></use>
                                </mask>
                                <use id="Mask" fill="#F7F7F7" fill-rule="nonzero" xlink:href="#path-1"></use>
                            </g>
                        </g>
                        <g id="Group-2" transform="translate(42.000000, 41.000000)">
                            <rect id="Rectangle" fill="#FF7201" fill-rule="nonzero" x="28" y="16" width="4" height="39"></rect>
                            <path d="M35.8197818,16 L50.7872328,16 C51.9170521,15.9997675 53.0095248,15.5954107 53.8672328,14.86 L59.9805661,9.62666667 C60.429099,9.24640775 60.6875623,8.6880293 60.6872328,8.1 C60.6916109,7.49443093 60.4310121,6.91721671 59.9738994,6.52 L53.8738994,1.18666667 C53.0197316,0.430853863 51.921078,0.00938760707 50.7805661,0 L23.9081119,0 C23.5179767,0.0206257335 23.1464866,0.173453939 22.8547786,0.433333333 L22.2814453,1.00666667 C21.8687071,1.42055998 22.0046323,14.0137603 22.1014453,14.54 C22.2742743,15.3642726 22.9992584,15.9559264 23.8414453,15.96 C28.0481119,15.96 28.8397818,15.96 28.8397818,15.96 L35.8197818,16 Z" id="Path-Copy-2" fill="#E1E1E1"></path>
                            <path d="M13.8197818,41 L28.7872328,41 C29.9170521,40.9997675 31.0095248,40.5954107 31.8672328,39.86 L37.9805661,34.6266667 C38.429099,34.2464077 38.6875623,33.6880293 38.6872328,33.1 C38.6916109,32.4944309 38.4310121,31.9172167 37.9738994,31.52 L31.8738994,26.1866667 C31.0197316,25.4308539 29.921078,25.0093876 28.7805661,25 L1.90811192,25 C1.51797674,25.0206257 1.14648664,25.1734539 0.854778589,25.4333333 L0.281445256,26.0066667 C-0.131292886,26.42056 0.00463227894,39.0137603 0.101445256,39.54 C0.274274276,40.3642726 0.999258419,40.9559264 1.84144526,40.96 C6.04811192,40.96 6.83978178,40.96 6.83978178,40.96 L13.8197818,41 Z" id="Path-Copy-3" fill="#E1E1E1" transform="translate(19.343644, 33.000000) scale(-1, 1) translate(-19.343644, -33.000000) "></path>
                            <path d="M39.9395721,60.0880429 C38.8927409,57.0444214 36.0294372,55.0007798 32.8108215,55.0000001 L32.3852927,55.0000001 L27.6175404,55.0000001 L27.1920116,55.0000001 C23.9757938,54.9994339 21.1132156,57.0388831 20.063261,60.0788918 C19.9328674,60.4934319 20.0064688,60.9452318 20.2616916,61.2969523 C20.5169144,61.6486728 20.9236098,61.858766 21.3581496,61.8633672 L38.6446835,61.8633672 C39.0770337,61.8578966 39.4815351,61.6490345 39.7363331,61.2997001 C39.9911311,60.9503657 40.0664396,60.5013965 39.9395721,60.0880429 Z" id="Path-Copy-5" fill="#C3C3C3"></path>
                        </g>
                    </g>
                </g>
            </g>
        </g>
    </g>
</svg>