<?xml version="1.0" encoding="UTF-8"?>
<svg width="86px" height="34px" viewBox="0 0 86 34" version="1.1" xmlns="http://www.w3.org/2000/svg" xmlns:xlink="http://www.w3.org/1999/xlink">
    <!-- Generator: sketchtool 53 (72520) - https://sketchapp.com -->
    <title>542EE583-BBF4-4CC2-9E4D-92B8248986B8</title>
    <desc>Created with sketchtool.</desc>
    <g id="Page-1" stroke="none" stroke-width="1" fill="none" fill-rule="evenodd">
        <g id="map-Main" transform="translate(-751.000000, -25.000000)">
            <g id="map_logo" transform="translate(740.000000, 17.000000)">
                <g id="Group" transform="translate(46.158898, 8.000039)">
                    <path d="M23.9545455,23.4553636 C23.9545455,23.9228636 23.5944545,24.3409091 23.1462727,24.3409091 L14.9951591,24.3409091 C6.42986364,24.3409091 1.54545455,19.2382045 1.54545455,12.9431818 C1.54545455,6.64777273 6.56161364,1.54545455 12.75,1.54545455 C18.9387727,1.54545455 23.9545455,6.47429545 23.9545455,15.2223409 L23.9545455,23.4553636 Z M25.2793864,12.1383864 C25.2314773,11.8103636 25.177,11.4865909 25.1136364,11.169 C23.7756591,4.42888636 19.0643409,-1.77635684e-15 12.75,-1.77635684e-15 C7.61097727,-1.77635684e-15 3.17552273,3.10404545 1.15909091,7.56113636 C1.06945455,7.7605 0.984068182,7.96256818 0.903704545,8.16734091 C0.323,9.64595455 0,11.2567045 0,12.9431818 C0,14.8970227 0.408,16.6978636 1.15909091,18.2981818 C3.33934091,22.9415 8.42929545,25.8863636 14.9951591,25.8863636 L23.1462727,25.8863636 C23.9688409,25.8863636 24.6928864,25.4478409 25.1136364,24.786 C25.3574318,24.4035 25.5,23.9464318 25.5,23.4553636 L25.5,15.2223409 C25.5,14.1536591 25.4235,13.1243864 25.2793864,12.1383864 L25.2793864,12.1383864 Z" id="Fill-13" fill="#FEF4EE"></path>
                    <path d="M8.51549318,12.9431818 C8.51549318,10.5643409 10.4113795,8.63561364 12.7500386,8.63561364 C15.0886977,8.63561364 16.9849705,10.5643409 16.9849705,12.9431818 C16.9849705,15.3220227 15.0886977,17.25075 12.7500386,17.25075 C10.4113795,17.25075 8.51549318,15.3220227 8.51549318,12.9431818 M12.7500386,1.54545455 C6.56165227,1.54545455 1.54549318,6.64777273 1.54549318,12.9431818 C1.54549318,19.2382045 6.42990227,24.3409091 14.9951977,24.3409091 L23.1463114,24.3409091 C23.5944932,24.3409091 23.9545841,23.9228636 23.9545841,23.4553636 L23.9545841,15.2223409 C23.9545841,6.47429545 18.9388114,1.54545455 12.7500386,1.54545455" id="Fill-15" fill="#FF7201"></path>
                    <path d="M12.75,15.70545 C11.2671364,15.70545 10.0605227,14.4663818 10.0605227,12.9433364 C10.0605227,11.4199045 11.2671364,10.1808364 12.75,10.1808364 C14.2328636,10.1808364 15.4394773,11.4199045 15.4394773,12.9433364 C15.4394773,14.4663818 14.2328636,15.70545 12.75,15.70545 M12.75,8.63538182 C10.4113409,8.63538182 8.51545455,10.5641091 8.51545455,12.9433364 C8.51545455,15.3221773 10.4113409,17.2509045 12.75,17.2509045 C15.0886591,17.2509045 16.9849318,15.3221773 16.9849318,12.9433364 C16.9849318,10.5641091 15.0886591,8.63538182 12.75,8.63538182" id="Fill-17" fill="#FEF4EE"></path>
                </g>
                <g id="m" opacity="0.25" transform="translate(11.000000, 7.999884)">
                    <path d="M34.7725341,23.1167159 C34.7725341,23.5822841 34.3900341,23.9547386 33.9101705,23.9547386 L27.9717614,23.9547386 C27.4938295,23.9547386 27.1090114,23.5822841 27.1090114,23.1167159 L27.1090114,11.3430568 C27.1090114,10.3191932 26.9652841,9.43248864 26.5804659,8.77914773 C26.1979659,8.12696591 25.5724432,7.70814773 24.6123295,7.70814773 C23.3141477,7.70814773 22.4977614,8.35994318 22.0665795,9.43248864 C21.8254886,10.0375341 21.7304432,10.831125 21.7304432,11.5316023 L21.7304432,23.1167159 C21.7304432,23.5822841 21.3518068,23.9547386 20.8792841,23.9547386 L14.9176932,23.9547386 C14.4459432,23.9547386 14.0669205,23.5822841 14.0669205,23.1167159 L14.0669205,11.5316023 C14.0669205,10.831125 13.9796023,10.0375341 13.7597614,9.43248864 C13.3656705,8.35994318 12.6230795,7.70814773 11.4844659,7.70814773 C10.6081932,7.70814773 10.040625,8.12696591 9.68903409,8.77914773 C9.339375,9.43248864 9.20917045,10.3191932 9.20917045,11.3430568 L9.20917045,23.1167159 C9.20917045,23.5822841 8.83014773,23.9547386 8.35801136,23.9547386 L2.39642045,23.9547386 C1.92428409,23.9547386 1.54526136,23.5822841 1.54526136,23.1167159 L1.54526136,11.3430568 C1.54526136,8.54617045 2.11282955,6.42001136 3.15446591,4.90314773 C4.76135227,2.60235227 7.45855682,1.54564773 10.8724659,1.54564773 C12.7981023,1.54564773 14.3508977,1.86748864 15.7688523,2.60235227 C16.5732614,3.01769318 17.3313068,3.66176136 17.8984886,4.35064773 C18.4660568,3.66176136 19.2221705,3.01769318 20.0265795,2.60235227 C21.4936023,1.86748864 23.3141477,1.54564773 25.2842159,1.54564773 C28.8812614,1.54564773 31.6113068,2.60235227 33.1930795,4.94796591 C34.2463068,6.466375 34.7725341,8.59253409 34.7725341,11.3430568 L34.7725341,23.1167159 Z M35.1588977,12.943375 C35.1588977,11.2568977 35.4818977,9.64614773 36.0626023,8.16753409 C35.8157159,6.77430682 35.3829886,5.58276136 34.7725341,4.56276136 C34.6759432,4.400875 34.5805114,4.23705682 34.4746477,4.08367045 C32.6467614,1.37410227 29.5550795,0.000193181818 25.2846023,0.000193181818 C22.952125,0.000193181818 20.950375,0.410897727 19.3179886,1.22960227 C18.8303977,1.48073864 18.3497614,1.80257955 17.8984886,2.17542045 C17.4472159,1.80296591 16.9673523,1.48189773 16.4805341,1.23076136 C14.8605114,0.391193182 13.0789886,0.000193181818 10.8724659,0.000193181818 C6.83071591,0.000193181818 3.72396591,1.38955682 1.88023864,4.02880682 C0.633056818,5.845875 -0.000193181818,8.306625 -0.000193181818,11.3430568 L-0.000193181818,23.1167159 C-0.000193181818,24.4299659 1.07351136,25.4986477 2.39410227,25.5001932 L8.36071591,25.5001932 C9.68092045,25.4986477 10.754625,24.4299659 10.754625,23.1167159 L10.754625,11.3430568 C10.754625,10.2851932 10.916125,9.76167045 11.0490341,9.51323864 C11.1641705,9.29957955 11.2414432,9.25360227 11.4844659,9.25360227 C11.7220795,9.25360227 12.0473977,9.25360227 12.3070341,9.95871591 C12.4411023,10.3292386 12.5210795,10.9172841 12.5210795,11.5316023 L12.5210795,23.1167159 C12.5210795,24.4299659 13.5947841,25.4986477 14.915375,25.5001932 L20.8819886,25.5001932 C22.2025795,25.4986477 23.2758977,24.4299659 23.2758977,23.1167159 L23.2758977,11.5316023 C23.2758977,10.9311932 23.3605114,10.3601477 23.5007614,10.0089432 C23.7248523,9.45142045 24.0153977,9.25360227 24.6123295,9.25360227 C25.0326932,9.25360227 25.1489886,9.39307955 25.2494432,9.56346591 C25.3927841,9.80726136 25.5639432,10.3137841 25.5639432,11.3430568 L25.5639432,23.1167159 C25.5639432,24.4299659 26.6426705,25.4986477 27.9694432,25.5001932 L33.9121023,25.5001932 C34.2157841,25.4998068 34.5051705,25.4414659 34.7725341,25.3394659 C35.6750795,24.9948295 36.3179886,24.1297614 36.3179886,23.1167159 L36.3179886,18.298375 C35.5668977,16.6980568 35.1588977,14.8972159 35.1588977,12.943375 L35.1588977,12.943375 Z" id="Fill-10" fill="#FEF4EE"></path>
                    <path d="M33.1931182,4.94781136 C31.6113455,2.60258409 28.8813,1.54549318 25.2842545,1.54549318 C23.3141864,1.54549318 21.4936409,1.86733409 20.0266182,2.60258409 C19.2222091,3.017925 18.4660955,3.66160682 17.8985273,4.35049318 C17.3313455,3.66160682 16.5733,3.017925 15.7688909,2.60258409 C14.35055,1.86733409 12.7981409,1.54549318 10.8725045,1.54549318 C7.45859545,1.54549318 4.76139091,2.60258409 3.15450455,4.90337955 C2.11286818,6.42024318 1.5453,8.54601591 1.5453,11.3432886 L1.5453,23.1165614 C1.5453,23.5821295 1.92432273,23.9545841 2.39645909,23.9545841 L8.35805,23.9545841 C8.83018636,23.9545841 9.20920909,23.5821295 9.20920909,23.1165614 L9.20920909,11.3432886 C9.20920909,10.3190386 9.33941364,9.43233409 9.68907273,8.77899318 C10.0406636,8.12719773 10.6082318,7.70837955 11.4841182,7.70837955 C12.6231182,7.70837955 13.3657091,8.35978864 13.7598,9.43233409 C13.9796409,10.0377659 14.0669591,10.8313568 14.0669591,11.5314477 L14.0669591,23.1165614 C14.0669591,23.5821295 14.4459818,23.9545841 14.9177318,23.9545841 L20.8793227,23.9545841 C21.3518455,23.9545841 21.7304818,23.5821295 21.7304818,23.1165614 L21.7304818,11.5314477 C21.7304818,10.8313568 21.8255273,10.0377659 22.0666182,9.43233409 C22.4978,8.35978864 23.3141864,7.70837955 24.6123682,7.70837955 C25.5720955,7.70837955 26.1980045,8.12719773 26.5805045,8.77899318 C26.9653227,9.43233409 27.10905,10.3190386 27.10905,11.3432886 L27.10905,23.1165614 C27.10905,23.5821295 27.4938682,23.9545841 27.9718,23.9545841 L33.9098227,23.9545841 C34.3900727,23.9545841 34.7725727,23.5821295 34.7725727,23.1165614 L34.7725727,11.3432886 C34.7725727,8.59276591 34.2463455,6.46660682 33.1931182,4.94781136" id="Fill-5" fill="#020303"></path>
                </g>
                <g id="p" opacity="0.25" transform="translate(71.272689, 7.999923)">
                    <path d="M12.7498455,15.4757955 C11.2669818,15.4757955 10.0603682,14.2649318 10.0603682,12.7766591 C10.0603682,11.288 11.2669818,10.0771364 12.7498455,10.0771364 C14.2327091,10.0771364 15.4393227,11.288 15.4393227,12.7766591 C15.4393227,14.2649318 14.2327091,15.4757955 12.7498455,15.4757955 M12.7498455,8.53168182 C10.4111864,8.53168182 8.5153,10.4322045 8.5153,12.7766591 C8.5153,15.1203409 10.4111864,17.02125 12.7498455,17.02125 C15.0885045,17.02125 16.9847773,15.1203409 16.9847773,12.7766591 C16.9847773,10.4322045 15.0885045,8.53168182 12.7498455,8.53168182" id="Fill-1" fill="#FEF4EE"></path>
                    <path d="M12.7498455,8.53183636 C15.0885045,8.53183636 16.9847773,10.4323591 16.9847773,12.7764273 C16.9847773,15.1204955 15.0885045,17.0214045 12.7498455,17.0214045 C10.4111864,17.0214045 8.5153,15.1204955 8.5153,12.7764273 C8.5153,10.4323591 10.4111864,8.53183636 12.7498455,8.53183636 M12.7498455,1.54560909 C6.44709545,1.56647273 1.71491364,5.45715455 1.54993636,14.6251773 C1.54684545,14.6618818 1.5453,14.7001318 1.5453,14.7403136 L1.5453,31.6271091 C1.5453,32.0880409 1.89611818,32.4547 2.33270909,32.4547 L7.84495909,32.4547 C8.28193636,32.4547 8.63236818,32.0880409 8.63236818,31.6271091 L8.63236818,24.0076318 L10.5050727,24.0076318 C19.0703682,24.0076318 23.9543909,18.9794955 23.9543909,12.7764273 C23.9543909,6.57374545 19.1661864,1.52435909 12.7498455,1.54560909" id="Fill-3" fill="#020303"></path>
                    <path d="M8.63213636,24.0074773 L8.63213636,31.6273409 C8.63213636,32.0878864 8.28170455,32.4545455 7.84472727,32.4545455 L2.33286364,32.4545455 C1.89627273,32.4545455 1.54545455,32.0878864 1.54545455,31.6273409 L1.54545455,14.7405455 C1.54545455,14.6999773 1.54661364,14.6621136 1.54970455,14.6250227 C1.71506818,5.457 6.44686364,1.56631818 12.75,1.54545455 C19.1663409,1.52459091 23.9545455,6.57359091 23.9545455,12.7766591 C23.9545455,18.9793409 19.0705227,24.0074773 10.5052273,24.0074773 L8.63213636,24.0074773 Z M12.7897955,-3.55271368e-15 L12.7453636,-3.55271368e-15 C6.58440909,0.0204772727 2.40820455,3.23734091 0.772727273,9.00922727 C0.497636364,9.98093182 0.294022727,11.0245 0.165363636,12.1383864 C0.249330491,12.7128727 0.194209279,17.4243197 0,26.2727273 L0,31.6273409 C0,32.9347955 1.04511364,33.9984545 2.33015909,34 L7.84704545,34 C9.13247727,33.9984545 10.1772045,32.9347955 10.1772045,31.6273409 L10.1772045,25.5529318 L10.5056136,25.5529318 C19.3340227,25.5529318 25.5,20.2987727 25.5,12.7766591 C25.5,9.29011364 24.1747727,6.04929545 21.7681136,3.65075 C19.4055,1.29547727 16.218,-3.55271368e-15 12.7897955,-3.55271368e-15 Z" id="Fill-7" fill="#FEF4EE"></path>
                </g>
            </g>
        </g>
    </g>
</svg>